<svg viewBox="0 0 100 100" xmlns="http://www.w3.org/2000/svg">
  <circle cx="50" cy="50" r="45" fill="#0a1014"/>
  <path d="M20 35V75C20 78 22 80 25 80" stroke="#a8d5ca" stroke-width="6" stroke-linecap="round" fill="none"/>
  <path d="M15 20V35H25V20" stroke="#a8d5ca" stroke-width="4" stroke-linecap="round" fill="none"/>
  <path d="M80 35V75C80 78 78 80 75 80" stroke="#a8d5ca" stroke-width="6" stroke-linecap="round" fill="none"/>
  <path d="M80 35C85 35 88 30 88 25C88 20 85 15 80 15C75 15 72 20 72 25C72 30 75 35 80 35Z" fill="#a8d5ca"/>
  <circle cx="50" cy="50" r="35" fill="rgba(37, 211, 102, 0.2)" stroke="#25D366" stroke-width="4"/>
  <circle cx="50" cy="50" r="30" fill="#128C7E"/>
  <path d="M38 50L46 58L62 42" stroke="white" stroke-width="6" stroke-linecap="round" stroke-linejoin="round" fill="none"/>
</svg>