<svg width="256" height="256" viewBox="0 0 256 256" fill="none" xmlns="http://www.w3.org/2000/svg">
  <rect width="256" height="256" rx="32" fill="#0F172A"/>
  <circle cx="96" cy="112" r="28" fill="#1E293B" stroke="#334155" stroke-width="4"/>
  <circle cx="160" cy="116" r="20" fill="#1E293B" stroke="#334155" stroke-width="4"/>
  <path d="M63 182c4-26 25-42 51-42s47 16 51 42" stroke="#334155" stroke-width="8" stroke-linecap="round" fill="none"/>
  <path d="M140 182c2-14 13-24 27-24 14 0 25 10 27 24" stroke="#334155" stroke-width="8" stroke-linecap="round" fill="none"/>
  <path d="M108 118c0 6.627-5.373 12-12 12-6.627 0-12-5.373-12-12s5.373-12 12-12c6.627 0 12 5.373 12 12Z" fill="#0EA5E9" opacity="0.35"/>
  <path d="M172 122c0 4.418-3.582 8-8 8-4.418 0-8-3.582-8-8s3.582-8 8-8c4.418 0 8 3.582 8 8Z" fill="#22C55E" opacity="0.35"/>
  <rect x="76" y="48" width="104" height="16" rx="8" fill="#1E293B" stroke="#334155" stroke-width="3"/>
  <text x="128" y="60" text-anchor="middle" fill="#94A3B8" font-family="'Inter', 'Segoe UI', sans-serif" font-size="12" font-weight="600">Nenhum usuário</text>
</svg>
